<?xml version="1.0" standalone="no"?>
<!DOCTYPE svg PUBLIC "-//W3C//DTD SVG 20010904//EN"
 "http://www.w3.org/TR/2001/REC-SVG-20010904/DTD/svg10.dtd">
<svg version="1.0" xmlns="http://www.w3.org/2000/svg" width="763.000000pt" height="763.000000pt" viewBox="0 0 763.000000 763.000000" preserveAspectRatio="xMidYMid meet">

<g transform="translate(0.000000,763.000000) scale(0.100000,-0.100000)"
fill="white" stroke="white">
<path d="M3760 7539 c-381 -27 -643 -126 -1115 -419 -201 -125 -205 -127 -332
-139 -138 -14 -265 -46 -403 -100 -144 -57 -215 -107 -351 -241 -184 -183
-275 -319 -441 -660 -55 -113 -111 -219 -124 -237 -13 -17 -70 -67 -126 -111
-228 -176 -416 -404 -551 -669 -267 -524 -325 -1054 -157 -1455 94 -227 302
-446 566 -597 140 -81 229 -111 370 -125 99 -11 130 -18 174 -42 129 -70 174
-184 201 -504 25 -307 -16 -880 -82 -1138 -23 -92 -57 -166 -112 -252 -37 -56
-42 -71 -42 -120 0 -104 59 -178 222 -277 195 -120 269 -147 399 -148 81 0 96
3 148 30 77 40 118 95 124 168 7 91 -28 140 -150 210 -26 15 -50 33 -54 39
-13 20 -7 97 15 211 14 73 21 148 21 230 0 67 7 169 15 226 34 236 59 526 80
916 13 241 40 340 111 412 37 36 47 42 63 33 11 -5 61 -16 113 -24 51 -8 113
-22 138 -31 111 -40 427 -112 610 -139 313 -46 560 -41 970 21 320 48 482 51
670 10 327 -70 506 -88 879 -88 423 1 668 26 964 101 67 17 168 39 227 49 151
27 170 38 233 126 171 245 343 553 412 740 94 252 116 493 75 809 -22 172 -22
176 -5 303 23 171 31 481 16 614 -42 367 -178 661 -426 919 -87 90 -125 140
-180 233 -120 203 -215 318 -390 471 -126 109 -272 204 -454 295 -256 126
-464 185 -699 197 -64 3 -155 12 -202 21 -154 27 -313 43 -423 43 -119 0 -290
-25 -321 -46 -17 -11 -23 -10 -49 12 -79 67 -216 111 -382 124 -66 5 -124 9
-130 8 -5 0 -57 -4 -115 -9z m335 -195 c39 -8 131 -37 205 -66 82 -31 153 -52
180 -53 25 0 51 -4 58 -9 7 -4 43 -1 80 8 214 48 606 73 872 55 155 -11 187
-16 275 -46 139 -47 380 -168 507 -255 257 -175 418 -351 577 -633 47 -82 85
-133 156 -206 197 -205 318 -442 378 -734 19 -95 22 -141 22 -335 -1 -157 -6
-260 -17 -340 -26 -179 -27 -184 -11 -370 20 -230 13 -435 -21 -586 -46 -209
-105 -357 -273 -685 -123 -240 -102 -220 -323 -287 -206 -61 -274 -79 -415
-106 -259 -50 -392 -60 -780 -61 -395 0 -472 7 -817 76 -221 44 -327 43 -668
-10 -363 -56 -471 -65 -690 -58 -211 7 -360 24 -575 68 -260 53 -373 86 -439
128 -84 53 -127 66 -170 51 -90 -29 -180 -199 -205 -385 -6 -44 -18 -183 -26
-310 -24 -350 -72 -765 -109 -935 -8 -36 -17 -99 -21 -140 -3 -41 -13 -110
-21 -154 -21 -118 -19 -213 7 -256 26 -42 39 -53 104 -86 66 -34 105 -72 105
-101 0 -38 -27 -79 -67 -105 -33 -20 -50 -23 -128 -22 -110 1 -148 14 -317
115 -139 83 -192 131 -207 186 -10 35 -8 42 25 93 91 141 129 257 163 495 35
248 45 385 46 650 1 664 -98 879 -414 901 -155 10 -273 57 -461 181 -267 177
-430 402 -502 691 -32 127 -32 409 0 569 63 314 201 629 380 870 94 124 260
287 372 363 152 104 195 152 274 315 90 182 183 348 260 459 101 149 300 337
418 397 132 66 403 139 519 139 63 0 133 33 354 166 349 209 547 296 785 344
186 38 413 44 555 14z"/>
<path d="M2920 5819 c-30 -11 -75 -27 -100 -35 -69 -24 -353 -165 -460 -229
-132 -79 -462 -299 -483 -323 -47 -51 -36 -130 23 -170 41 -28 94 -26 133 5
121 93 208 150 427 281 120 71 328 178 461 237 136 61 166 83 175 129 17 94
-69 145 -176 105z"/>
<path d="M4833 5746 c-32 -14 -63 -60 -63 -91 0 -65 71 -125 258 -219 49 -25
134 -70 188 -102 55 -31 142 -81 194 -111 52 -30 136 -86 187 -124 51 -39 105
-74 120 -78 68 -19 133 30 133 100 0 43 -35 90 -141 185 -116 103 -326 230
-593 360 -186 90 -232 103 -283 80z"/>
<path d="M2581 4968 c-33 -12 -61 -58 -61 -100 0 -61 47 -103 126 -114 90 -13
412 -9 463 5 96 27 133 120 72 182 -16 16 -38 30 -48 30 -76 5 -538 3 -552 -3z"/>
<path d="M4528 4931 c-29 -26 -33 -35 -33 -80 0 -42 5 -55 28 -78 26 -27 32
-28 160 -34 72 -4 182 -10 242 -14 94 -7 116 -5 143 9 80 41 78 143 -5 190
-26 14 -252 36 -375 36 -127 0 -128 0 -160 -29z"/>
<path d="M3134 4301 c-35 -15 -64 -60 -64 -101 0 -74 127 -227 251 -302 233
-142 550 -178 804 -93 165 56 335 187 351 272 17 93 -63 171 -153 148 -16 -3
-51 -31 -78 -60 -100 -107 -221 -155 -390 -155 -206 0 -406 81 -566 228 -71
65 -111 82 -155 63z"/>
<path d="M4407 2546 c-51 -19 -84 -51 -98 -95 -6 -20 -35 -85 -64 -146 -29
-60 -72 -171 -95 -245 -23 -74 -87 -261 -142 -415 -130 -362 -181 -519 -222
-685 -44 -175 -54 -238 -65 -404 -18 -267 15 -340 167 -368 86 -16 126 -5 182
51 69 69 95 157 125 426 25 227 61 415 100 525 32 91 106 157 214 190 84 27
111 17 139 -48 37 -87 48 -208 62 -702 12 -413 24 -480 94 -525 57 -38 222
-36 309 3 93 42 143 128 158 274 13 125 -1 273 -56 613 -65 405 -81 490 -130
685 -113 453 -183 609 -338 758 -37 35 -90 74 -120 88 -69 31 -167 40 -220 20z
m118 -175 c50 -23 169 -147 218 -228 91 -149 218 -586 272 -933 15 -91 41
-248 60 -350 70 -384 65 -551 -18 -604 -30 -20 -147 -38 -163 -26 -18 15 -22
58 -49 477 -36 552 -56 661 -134 743 -49 52 -104 67 -187 53 -136 -24 -261
-108 -309 -208 -34 -74 -81 -313 -110 -572 -31 -268 -41 -324 -67 -380 -29
-61 -55 -77 -124 -71 -43 4 -61 11 -82 32 l-27 27 1 162 c2 263 38 439 176
855 53 162 86 245 97 252 25 13 140 271 207 462 57 164 87 236 124 296 23 38
53 41 115 13z"/>
<path d="M4405 2088 c-27 -73 -95 -330 -95 -360 0 -80 70 -99 195 -54 86 31
105 49 105 97 0 41 -42 144 -98 244 -38 66 -57 85 -84 85 -10 0 -21 -6 -23
-12z m84 -215 c23 -46 41 -89 41 -97 0 -15 -95 -56 -130 -56 -15 0 -20 7 -20
26 0 39 52 226 61 217 4 -4 26 -45 48 -90z"/>
<path d="M3046 2399 c-157 -37 -333 -218 -396 -408 -47 -140 -33 -292 36 -407
19 -32 99 -124 177 -204 119 -121 149 -157 179 -220 62 -127 85 -267 58 -359
-31 -110 -134 -165 -235 -127 -63 24 -105 79 -162 208 -56 128 -100 183 -156
193 -108 20 -207 -99 -194 -233 19 -212 247 -484 469 -562 121 -42 304 -37
434 11 118 44 224 152 312 317 81 154 110 294 87 422 -28 159 -79 235 -305
460 -203 202 -234 246 -235 333 0 69 20 92 70 82 39 -7 77 -45 132 -130 25
-38 57 -83 72 -98 69 -75 183 -95 260 -44 116 77 169 278 108 411 -28 61 -117
161 -184 207 -64 44 -223 104 -353 133 -126 28 -119 28 -174 15z m155 -65 c30
-9 75 -27 100 -39 43 -22 209 -153 237 -188 27 -32 84 -133 93 -161 12 -41 -5
-99 -40 -139 -26 -28 -31 -30 -52 -19 -13 7 -42 38 -64 70 -60 87 -124 151
-180 180 -42 22 -63 26 -132 27 -74 0 -85 -3 -125 -30 -66 -46 -98 -117 -98
-219 1 -160 47 -239 280 -480 184 -190 219 -239 240 -337 34 -153 -74 -436
-197 -521 -89 -60 -240 -90 -348 -68 -72 14 -150 54 -228 116 -141 110 -248
333 -190 396 27 30 40 21 79 -49 72 -133 100 -175 143 -219 57 -57 133 -86
222 -86 119 0 206 56 255 164 25 56 28 75 28 163 1 117 -22 203 -87 330 -36
70 -61 100 -203 240 -130 127 -168 171 -188 216 -75 163 -23 362 133 520 76
76 163 129 213 129 13 0 30 5 38 10 8 5 15 10 16 10 0 0 25 -7 55 -16z"/>
<path d="M5449 2339 c-98 -10 -203 -35 -233 -54 -36 -24 -56 -75 -56 -145 0
-72 16 -138 65 -270 20 -52 56 -160 80 -240 25 -80 68 -219 95 -309 52 -167
100 -368 119 -499 6 -41 11 -172 10 -293 -1 -194 1 -223 18 -256 26 -52 61
-75 117 -75 56 0 108 29 182 99 28 26 98 84 155 128 146 113 342 310 422 426
167 241 247 479 247 736 0 283 -90 455 -314 598 -127 81 -357 137 -644 155
-86 5 -164 9 -172 9 -8 -1 -49 -5 -91 -10z m512 -149 c239 -35 338 -78 460
-200 117 -117 152 -215 152 -430 0 -189 -31 -313 -123 -496 -73 -145 -161
-265 -285 -391 -124 -125 -224 -202 -337 -259 -133 -67 -126 -76 -120 134 3
133 0 202 -12 277 -18 109 -75 343 -107 440 -42 124 -182 495 -244 645 -74
179 -91 261 -57 279 64 34 443 35 673 1z"/>
<path d="M5763 1870 c-109 -8 -143 -27 -110 -62 16 -17 122 -350 141 -443 21
-102 44 -280 56 -435 6 -74 16 -150 21 -167 10 -30 14 -33 51 -33 56 0 96 27
179 122 138 156 271 389 305 533 30 129 2 262 -71 338 -104 109 -324 165 -572
147z m232 -81 c85 -15 203 -63 247 -99 137 -113 100 -337 -104 -632 -62 -90
-189 -239 -199 -233 -3 3 -9 51 -13 107 -21 310 -85 597 -182 816 -13 30 -24
57 -24 60 0 8 207 -6 275 -19z"/>
</g>
</svg>
